<?xml version="1.0" standalone="no"?>
<!DOCTYPE svg PUBLIC "-//W3C//DTD SVG 20010904//EN"
 "http://www.w3.org/TR/2001/REC-SVG-20010904/DTD/svg10.dtd">
<svg version="1.0" xmlns="http://www.w3.org/2000/svg"
 width="1000.000000pt" height="1000.000000pt" viewBox="0 0 1000.000000 1000.000000"
 preserveAspectRatio="xMidYMid meet">

<g transform="translate(0.000000,1000.000000) scale(0.100000,-0.100000)"
fill="#000000" stroke="none">
<path d="M5570 9944 c-221 -40 -381 -105 -571 -230 -142 -94 -229 -166 -359
-300 -305 -315 -646 -788 -935 -1296 -100 -176 -388 -756 -465 -938 -141 -330
-296 -741 -359 -955 -186 -623 -261 -1008 -261 -1346 0 -195 18 -288 85 -426
160 -334 368 -527 665 -618 125 -38 352 -86 435 -92 79 -6 269 33 446 91 151
50 442 158 524 196 11 5 69 30 130 55 115 49 154 66 275 122 41 19 120 55 175
80 55 25 107 48 115 52 8 5 17 22 21 39 8 39 -8 51 -101 76 -36 10 -81 28
-100 40 -19 13 -57 31 -85 41 -27 11 -70 34 -95 51 -25 18 -77 43 -115 55 -39
12 -88 35 -110 49 -22 15 -61 36 -87 48 -26 11 -67 34 -91 51 -24 16 -64 38
-88 47 -24 10 -63 31 -87 47 -24 16 -67 37 -95 47 -29 10 -82 34 -118 53 -37
20 -91 40 -120 46 -92 20 -90 -6 -25 322 63 314 84 409 182 794 212 842 472
1470 753 1825 95 120 272 280 420 380 125 84 277 140 380 140 190 0 330 -173
348 -430 9 -134 -25 -489 -103 -1063 -14 -103 -32 -224 -39 -270 -18 -100 -19
-149 -3 -165 21 -21 99 -13 158 16 49 24 67 44 175 187 283 377 449 738 534
1163 120 601 28 1075 -290 1497 -190 253 -407 408 -675 486 -97 28 -126 31
-264 34 -85 2 -166 1 -180 -1z"/>
<path d="M5925 6269 c-134 -12 -498 -126 -778 -243 -45 -19 -152 -64 -237 -99
-143 -60 -475 -212 -545 -249 -22 -12 -26 -18 -15 -22 13 -5 660 -179 785
-211 28 -7 85 -23 128 -34 42 -12 110 -30 150 -40 164 -44 342 -93 345 -96 2
-2 -1 -29 -7 -62 -47 -270 -67 -377 -92 -503 -45 -228 -88 -432 -99 -465 -5
-16 -16 -66 -25 -110 -18 -95 -156 -615 -185 -700 -12 -33 -34 -103 -50 -155
-123 -407 -332 -874 -498 -1115 -91 -132 -168 -220 -271 -312 -295 -265 -542
-369 -724 -307 -106 36 -190 150 -228 310 -17 74 -20 109 -15 204 12 257 47
577 121 1090 31 220 38 278 32 294 -9 23 -110 21 -163 -3 -39 -18 -64 -45
-174 -187 -199 -258 -390 -620 -461 -874 -92 -330 -116 -469 -123 -699 -5
-170 7 -299 38 -438 70 -312 225 -592 447 -814 210 -208 431 -320 702 -353
163 -19 308 -3 485 54 153 49 294 125 457 246 139 102 223 185 456 450 177
201 415 539 628 893 87 144 111 187 223 396 112 210 249 497 352 735 37 85 73
168 81 183 8 16 15 33 15 38 0 5 7 26 16 47 10 20 25 57 34 82 48 122 73 189
85 225 8 22 35 99 60 170 59 168 143 458 204 705 43 174 59 249 91 440 35 204
42 500 16 635 -37 192 -226 493 -393 628 -147 119 -280 174 -563 234 -160 33
-219 39 -305 32z"/>
</g>
</svg>
